<mxfile host="app.diagrams.net" modified="2024-04-10T15:18:45.528Z" agent="Mozilla/5.0 (Windows NT 10.0; Win64; x64) AppleWebKit/537.36 (KHTML, like Gecko) Chrome/123.0.0.0 Safari/537.36" version="24.2.0" etag="Qh242_Sjnq_UpUa6Gmrd" type="github">
  <diagram name="第 1 页" id="wLCHkNbt7bF0E3TjqUrD">
    <mxGraphModel>
      <root>
        <mxCell id="0" />
        <mxCell id="1" parent="0" />
      </root>
    </mxGraphModel>
  </diagram>
</mxfile>
